<svg width="34" height="34" viewBox="0 0 34 34" version="1.1" xmlns="http://www.w3.org/2000/svg" xmlns:xlink="http://www.w3.org/1999/xlink">
<title>instagram</title>
<desc>Created using Figma</desc>
<g id="Canvas" transform="translate(-1256 36)">
<g id="instagram">
<g id="Canvas">
<g id="003 social media">
<g id="Group">
<g id="Vector">
<g id="Vector">
<use xlink:href="#path0_fill" transform="translate(1256 -36)" fill="#F7F7F7"/>
</g>
</g>
<g id="Vector">
<g id="Vector">
<use xlink:href="#path1_fill" transform="translate(1264.24 -27.7605)" fill="#F7F7F7"/>
</g>
</g>
<g id="Vector">
<g id="Vector">
<use xlink:href="#path2_fill" transform="translate(1279.92 -30.3184)" fill="#F7F7F7"/>
</g>
</g>
</g>
</g>
</g>
</g>
</g>
<defs>
<path id="path0_fill" d="M 24.617 0L 9.38257 0C 4.20902 0 0 4.20922 0 9.38277L 0 24.6172C 0 29.791 4.20902 34 9.38257 34L 24.617 34C 29.791 34 34 29.7908 34 24.6172L 34 9.38277C 34.0002 4.20922 29.791 0 24.617 0ZM 30.9836 24.6172C 30.9836 28.1276 28.1276 30.9834 24.6172 30.9834L 9.38257 30.9834C 5.8724 30.9836 3.01664 28.1276 3.01664 24.6172L 3.01664 9.38277C 3.01664 5.8726 5.8724 3.01664 9.38257 3.01664L 24.617 3.01664C 28.1274 3.01664 30.9834 5.8726 30.9834 9.38277L 30.9834 24.6172L 30.9836 24.6172Z"/>
<path id="path1_fill" d="M 8.76094 5.66537e-15C 3.93008 5.66537e-15 -7.73498e-15 3.93008 -7.73498e-15 8.76094C -7.73498e-15 13.5916 3.93008 17.5215 8.76094 17.5215C 13.5918 17.5215 17.5219 13.5916 17.5219 8.76094C 17.5219 3.93008 13.5918 5.66537e-15 8.76094 5.66537e-15ZM 8.76094 14.5046C 5.59366 14.5046 3.01665 11.928 3.01665 8.76074C 3.01665 5.59326 5.59346 3.01644 8.76094 3.01644C 11.9284 3.01644 14.5052 5.59326 14.5052 8.76074C 14.5052 11.928 11.9282 14.5046 8.76094 14.5046Z"/>
<path id="path2_fill" d="M 2.21221 3.07714e-15C 1.631 3.07714e-15 1.06005 0.235298 0.649585 0.647573C 0.237109 1.05784 -1.20552e-15 1.62899 -1.20552e-15 2.21221C -1.20552e-15 2.79361 0.23731 3.36456 0.649585 3.77684C 1.05985 4.1871 1.631 4.42441 2.21221 4.42441C 2.79542 4.42441 3.36457 4.1871 3.77684 3.77684C 4.18911 3.36456 4.42441 2.79341 4.42441 2.21221C 4.42441 1.62899 4.18911 1.05784 3.77684 0.647573C 3.36658 0.235298 2.79542 3.07714e-15 2.21221 3.07714e-15Z"/>
</defs>
</svg>
