<svg width="36" height="30" viewBox="0 0 36 30" version="1.1" xmlns="http://www.w3.org/2000/svg" xmlns:xlink="http://www.w3.org/1999/xlink">
<title>twitter</title>
<desc>Created using Figma</desc>
<g id="Canvas" transform="translate(-1309 35)">
<g id="twitter">
<use xlink:href="#path0_fill" transform="translate(1309 -35)" fill="#F7F7F7"/>
</g>
</g>
<defs>
<path id="path0_fill" fill-rule="evenodd" d="M 17.4801 7.98047L 17.5581 9.27805L 16.2575 9.11917C 11.5233 8.5101 7.3874 6.44455 3.87579 2.9755L 2.15899 1.25421L 1.71679 2.52532C 0.78036 5.35882 1.37864 8.35121 3.32953 10.3638C 4.37001 11.476 4.13591 11.6349 2.34108 10.9729C 1.71679 10.761 1.17054 10.6021 1.11852 10.6816C 0.936431 10.8669 1.56072 13.2767 2.05495 14.2301C 2.73126 15.5541 4.10989 16.8517 5.61859 17.6197L 6.89318 18.2287L 5.38448 18.2552C 3.92781 18.2552 3.87579 18.2817 4.03186 18.8378C 4.5521 20.5591 6.60704 22.3863 8.8961 23.1807L 10.5088 23.7369L 9.10419 24.5843C 7.02324 25.8024 4.57811 26.4909 2.13298 26.5439C 0.962443 26.5704 0 26.6763 0 26.7557C 0 27.0205 3.17346 28.5035 5.02031 29.0861C 10.5609 30.8074 17.1419 30.0659 22.0842 27.1265C 25.5958 25.0344 29.1074 20.8769 30.7462 16.8517C 31.6306 14.7067 32.515 10.7875 32.515 8.90732C 32.515 7.68918 32.593 7.53029 34.0497 6.07381C 34.9081 5.22641 35.7145 4.29957 35.8705 4.03475C 36.1306 3.53161 36.1046 3.53161 34.778 3.98179C 32.567 4.77623 32.2549 4.67031 33.3474 3.47865C 34.1537 2.63124 35.1162 1.09533 35.1162 0.645145C 35.1162 0.565701 34.726 0.698107 34.2838 0.936439C 33.8156 1.20125 32.7751 1.59847 31.9947 1.8368L 30.5901 2.28699L 29.3155 1.4131C 28.6132 0.936439 27.6247 0.406813 27.1045 0.247925C 25.7779 -0.122814 23.7489 -0.0698511 22.5524 0.35385C 19.3009 1.54551 17.2459 4.61734 17.4801 7.98047Z"/>
</defs>
</svg>
