<svg width="13" height="16" viewBox="0 0 13 16" version="1.1" xmlns="http://www.w3.org/2000/svg" xmlns:xlink="http://www.w3.org/1999/xlink">
<title>location-hover</title>
<desc>Created using Figma</desc>
<g id="Canvas" transform="translate(-471 310)">
<g id="location-hover">
<g id="Canvas">
<g id="location">
<g id="Combined Shape">
<g id="Vector">
<use xlink:href="#path0_fill" transform="translate(471 -310)" fill="#59BD5A"/>
</g>
</g>
<g id="Oval 3">
<g id="Vector">
<use xlink:href="#path1_fill" transform="translate(475 -306)" fill="#59BD5A"/>
</g>
</g>
</g>
</g>
</g>
</g>
<defs>
<path id="path0_fill" d="M 6.5 15.2859L 6.14303 15.636L 6.5 16L 6.85697 15.636L 6.5 15.2859ZM 10.7392 10.9636L 11.0962 11.3137L 10.7392 10.9636ZM 10.7392 2.29123L 11.0962 1.94113L 10.7392 2.29123ZM 2.26077 2.29123L 1.90381 1.94113L 2.26077 2.29123ZM 2.26077 10.9636L 2.61774 10.6135L 2.26077 10.9636ZM 6.85697 15.636L 11.0962 11.3137L 10.3823 10.6135L 6.14303 14.9358L 6.85697 15.636ZM 11.0962 11.3137C 13.6346 8.72554 13.6346 4.52929 11.0962 1.94113L 10.3823 2.64134C 12.5392 4.84061 12.5392 8.41423 10.3823 10.6135L 11.0962 11.3137ZM 11.0962 1.94113C 8.55779 -0.647043 4.44221 -0.647043 1.90381 1.94113L 2.61774 2.64134C 4.76412 0.452886 8.23588 0.452886 10.3823 2.64134L 11.0962 1.94113ZM 1.90381 1.94113C -0.634602 4.52929 -0.634602 8.72554 1.90381 11.3137L 2.61774 10.6135C 0.46075 8.41423 0.46075 4.84061 2.61774 2.64134L 1.90381 1.94113ZM 1.90381 11.3137L 6.14303 15.636L 6.85697 14.9358L 2.61774 10.6135L 1.90381 11.3137Z"/>
<path id="path1_fill" d="M 2.5 5C 3.88071 5 5 3.88071 5 2.5L 4 2.5C 4 3.32843 3.32843 4 2.5 4L 2.5 5ZM 5 2.5C 5 1.11929 3.88071 0 2.5 0L 2.5 1C 3.32843 1 4 1.67157 4 2.5L 5 2.5ZM 2.5 0C 1.11929 0 0 1.11929 0 2.5L 1 2.5C 1 1.67157 1.67157 1 2.5 1L 2.5 0ZM 0 2.5C 0 3.88071 1.11929 5 2.5 5L 2.5 4C 1.67157 4 1 3.32843 1 2.5L 0 2.5Z"/>
</defs>
</svg>
