<svg width="106" height="13" viewBox="0 0 106 13" version="1.1" xmlns="http://www.w3.org/2000/svg" xmlns:xlink="http://www.w3.org/1999/xlink">
<title>logo</title>
<desc>Created using Figma</desc>
<g id="Canvas" transform="translate(-1718 472)">
<g id="logo">
<g id="XMLID_234_">
<g id="XMLID_243_">
<use xlink:href="#path0_fill" transform="translate(1718.34 -470.787)"/>
</g>
<g id="XMLID_242_">
<use xlink:href="#path1_fill" transform="translate(1746.61 -470.787)"/>
</g>
<g id="XMLID_238_">
<use xlink:href="#path2_fill" transform="translate(1732.75 -470.787)"/>
</g>
<g id="XMLID_235_">
<use xlink:href="#path3_fill" transform="translate(1759.45 -470.787)"/>
</g>
</g>
<g id="XMLID_224_">
<g id="XMLID_232_">
<use xlink:href="#path4_fill" transform="translate(1777.82 -470.787)" fill="#57AD56"/>
<use xlink:href="#path5_stroke" transform="translate(1777.82 -470.787)" fill="#57AD56"/>
</g>
<g id="XMLID_229_">
<use xlink:href="#path6_fill" transform="translate(1789.68 -470.787)" fill="#57AD56"/>
<use xlink:href="#path7_stroke" transform="translate(1789.68 -470.787)" fill="#57AD56"/>
</g>
<g id="XMLID_227_">
<use xlink:href="#path8_fill" transform="translate(1803.24 -470.787)" fill="#57AD56"/>
<use xlink:href="#path9_stroke" transform="translate(1803.24 -470.787)" fill="#57AD56"/>
</g>
<g id="XMLID_225_">
<use xlink:href="#path10_fill" transform="translate(1816.21 -471)" fill="#57AD56"/>
<use xlink:href="#path11_stroke" transform="translate(1816.21 -471)" fill="#57AD56"/>
</g>
</g>
</g>
</g>
<defs>
<path id="path0_fill" d="M 7.99269 0.255086L 7.99269 6.12206C 7.99269 8.07772 7.1424 8.88549 5.10172 8.88549C 3.06103 8.88549 2.21074 8.07772 2.21074 6.12206L 2.21074 0L 0.255086 0C 0.127543 0 0 0.127543 0 0.255086L 0 6.20709C 0 9.48069 2.0832 10.6286 5.10172 10.6286C 8.12023 10.6286 10.2034 9.48069 10.2034 6.20709L 10.2034 0L 8.24778 0C 8.12023 0 7.99269 0.0850286 7.99269 0.255086Z"/>
<path id="path1_fill" d="M 8.16275 1.70057C 8.3328 1.70057 8.41783 1.65806 8.46035 1.53051L 9.01303 0.127543C 9.05555 0.0425143 9.01303 0 8.928 0L 1.02034 0C 0.2976 0 0 0.212572 0 0.722743L 0 9.8208C 0 10.2459 0.212572 10.4585 0.765257 10.4585L 8.12023 10.4585C 8.29029 10.4585 8.37532 10.416 8.41783 10.2885L 8.97052 8.88549C 9.01303 8.80046 8.97052 8.75795 8.88549 8.75795L 2.16823 8.75795L 2.16823 6.88732C 2.16823 6.2496 2.50834 5.952 3.48617 5.952L 6.41966 5.952C 6.58972 5.952 6.67475 5.90949 6.71726 5.78195L 7.26995 4.42149C 7.31246 4.33646 7.26995 4.29394 7.18492 4.29394L 2.21074 4.29394L 2.21074 1.65806L 8.16275 1.65806L 8.16275 1.70057Z"/>
<path id="path2_fill" fill-rule="evenodd" d="M 8.12024 4.93167C 8.97046 4.46399 9.31067 3.65622 9.31067 2.63589C 9.31067 0.340118 7.44006 0 5.48438 0L 1.02039 0C 0.297607 0 0 0.212585 0 0.722748L 0 9.8208C 0 10.2459 0.212524 10.4585 0.765259 10.4585L 6.24963 10.4585C 8.33276 10.4585 9.77832 9.65076 9.77832 7.56754C 9.8208 6.29211 9.31067 5.22925 8.12024 4.93167ZM 2.21069 1.65805L 5.6543 1.65805C 6.80225 1.65805 7.14233 2.08319 7.14233 2.97598C 7.14233 3.8688 6.80225 4.29395 5.6543 4.29395L 2.21069 4.29395L 2.21069 1.65805ZM 2.21069 8.75793L 6.07947 8.75793C 7.31238 8.75793 7.65247 8.33279 7.65247 7.35498C 7.65247 6.37714 7.31238 5.90948 6.07947 5.90948L 3.52869 5.90948C 2.55078 5.90948 2.21069 6.20709 2.21069 6.84479L 2.21069 8.75793Z"/>
<path id="path3_fill" fill-rule="evenodd" d="M 7.52502 6.2496L 9.86328 10.2885C 9.90588 10.331 9.90588 10.4585 9.8208 10.4585L 7.82263 10.4585C 7.65259 10.4585 7.61011 10.416 7.52502 10.2885L 5.39929 6.46219L 3.48621 6.46219C 2.5083 6.46219 2.16821 6.75977 2.16821 7.39749L 2.16821 10.4585L 0.255127 10.4585C 0.127563 10.4585 0 10.331 0 10.2034L 0 0.722748C 0 0.212585 0.297607 0 1.02039 0L 5.48438 0C 8.07776 0 9.65076 0.680237 9.65076 3.23108C 9.65076 5.18674 8.67297 5.952 7.52502 6.2496ZM 2.12573 4.84662L 5.78198 4.84662C 7.14246 4.84662 7.44006 4.33646 7.44006 3.23108C 7.44006 2.16821 7.14246 1.65805 5.78198 1.65805L 2.12573 1.65805L 2.12573 4.84662Z"/>
<path id="path4_fill" d="M 7.78012 9.5232L 7.7376 10.4585L 0 10.4585L 0 0L 7.44 0L 7.48252 0.977829L 1.06286 0.977829L 1.06286 4.59154L 6.58972 4.59154L 6.58972 5.44183L 1.06286 5.44183L 1.06286 9.5232L 7.78012 9.5232Z"/>
<path id="path5_stroke" d="M 7.7376 10.4585L 7.7376 10.5835L 7.85705 10.5835L 7.86247 10.4642L 7.7376 10.4585ZM 0 10.4585L -0.125 10.4585L -0.125 10.5835L 0 10.5835L 0 10.4585ZM 0 0L 0 -0.125L -0.125 -0.125L -0.125 0L 0 0ZM 7.44 0L 7.56489 -0.00542966L 7.55969 -0.125L 7.44 -0.125L 7.44 0ZM 7.48252 0.977829L 7.48252 1.10283L 7.61307 1.10283L 7.6074 0.972399L 7.48252 0.977829ZM 1.06286 0.977829L 1.06286 0.852829L 0.937858 0.852829L 0.937858 0.977829L 1.06286 0.977829ZM 1.06286 4.59154L 0.937858 4.59154L 0.937858 4.71654L 1.06286 4.71654L 1.06286 4.59154ZM 6.58972 4.59154L 6.71472 4.59154L 6.71472 4.46654L 6.58972 4.46654L 6.58972 4.59154ZM 6.58972 5.44183L 6.58972 5.56683L 6.71472 5.56683L 6.71472 5.44183L 6.58972 5.44183ZM 1.06286 5.44183L 1.06286 5.31683L 0.937858 5.31683L 0.937858 5.44183L 1.06286 5.44183ZM 1.06286 9.5232L 0.937858 9.5232L 0.937858 9.6482L 1.06286 9.6482L 1.06286 9.5232ZM 7.65525 9.51753L 7.61273 10.4528L 7.86247 10.4642L 7.90499 9.52888L 7.65525 9.51753ZM 7.7376 10.3335L 0 10.3335L 0 10.5835L 7.7376 10.5835L 7.7376 10.3335ZM 0.125 10.4585L 0.125 0L -0.125 0L -0.125 10.4585L 0.125 10.4585ZM 0 0.125L 7.44 0.125L 7.44 -0.125L 0 -0.125L 0 0.125ZM 7.31512 0.00542966L 7.35764 0.983259L 7.6074 0.972399L 7.56489 -0.00542966L 7.31512 0.00542966ZM 7.48252 0.852829L 1.06286 0.852829L 1.06286 1.10283L 7.48252 1.10283L 7.48252 0.852829ZM 0.937858 0.977829L 0.937858 4.59154L 1.18786 4.59154L 1.18786 0.977829L 0.937858 0.977829ZM 1.06286 4.71654L 6.58972 4.71654L 6.58972 4.46654L 1.06286 4.46654L 1.06286 4.71654ZM 6.46472 4.59154L 6.46472 5.44183L 6.71472 5.44183L 6.71472 4.59154L 6.46472 4.59154ZM 6.58972 5.31683L 1.06286 5.31683L 1.06286 5.56683L 6.58972 5.56683L 6.58972 5.31683ZM 0.937858 5.44183L 0.937858 9.5232L 1.18786 9.5232L 1.18786 5.44183L 0.937858 5.44183ZM 1.06286 9.6482L 7.78012 9.6482L 7.78012 9.3982L 1.06286 9.3982L 1.06286 9.6482Z"/>
<path id="path6_fill" fill-rule="evenodd" d="M 2.33826 7.73761L 8.50281 7.73761L 9.69324 10.4585L 10.8837 10.4585L 6.07959 0L 4.84668 0L 0 10.4585L 1.14783 10.4585L 2.33826 7.73761ZM 2.72095 6.84482L 4.97424 1.78561L 5.39929 0.722748L 5.44189 0.722748L 5.86707 1.78561L 8.07776 6.84482L 2.72095 6.84482Z"/>
<path id="path7_stroke" d="M 8.50281 7.73761L 8.61733 7.68751L 8.58456 7.61261L 8.50281 7.61261L 8.50281 7.73761ZM 2.33826 7.73761L 2.33826 7.61261L 2.25651 7.61261L 2.22374 7.68751L 2.33826 7.73761ZM 9.69324 10.4585L 9.57872 10.5086L 9.61149 10.5835L 9.69324 10.5835L 9.69324 10.4585ZM 10.8837 10.4585L 10.8837 10.5835L 11.0786 10.5835L 10.9973 10.4064L 10.8837 10.4585ZM 6.07959 0L 6.19318 -0.0521768L 6.15973 -0.125L 6.07959 -0.125L 6.07959 0ZM 4.84668 0L 4.84668 -0.125L 4.76684 -0.125L 4.73327 -0.052558L 4.84668 0ZM 0 10.4585L -0.113414 10.406L -0.195697 10.5835L 0 10.5835L 0 10.4585ZM 1.14783 10.4585L 1.14783 10.5835L 1.22958 10.5835L 1.26235 10.5086L 1.14783 10.4585ZM 4.97424 1.78561L 5.08851 1.83651L 5.09031 1.83203L 4.97424 1.78561ZM 2.72095 6.84482L 2.60676 6.79396L 2.52844 6.96982L 2.72095 6.96982L 2.72095 6.84482ZM 5.39929 0.722748L 5.39929 0.597748L 5.31466 0.597748L 5.28323 0.676333L 5.39929 0.722748ZM 5.44189 0.722748L 5.55795 0.676322L 5.52652 0.597748L 5.44189 0.597748L 5.44189 0.722748ZM 5.86707 1.78561L 5.75095 1.83206L 5.75252 1.83566L 5.86707 1.78561ZM 8.07776 6.84482L 8.07776 6.96982L 8.26879 6.96982L 8.1923 6.79477L 8.07776 6.84482ZM 8.50281 7.61261L 2.33826 7.61261L 2.33826 7.86261L 8.50281 7.86261L 8.50281 7.61261ZM 9.80776 10.4084L 8.61733 7.68751L 8.38829 7.78771L 9.57872 10.5086L 9.80776 10.4084ZM 10.8837 10.3335L 9.69324 10.3335L 9.69324 10.5835L 10.8837 10.5835L 10.8837 10.3335ZM 5.966 0.0521768L 10.7701 10.5107L 10.9973 10.4064L 6.19318 -0.0521768L 5.966 0.0521768ZM 4.84668 0.125L 6.07959 0.125L 6.07959 -0.125L 4.84668 -0.125L 4.84668 0.125ZM 0.113414 10.5111L 4.96009 0.052558L 4.73327 -0.052558L -0.113414 10.406L 0.113414 10.5111ZM 1.14783 10.3335L 0 10.3335L 0 10.5835L 1.14783 10.5835L 1.14783 10.3335ZM 2.22374 7.68751L 1.03331 10.4084L 1.26235 10.5086L 2.45278 7.78771L 2.22374 7.68751ZM 4.86006 1.73476L 2.60676 6.79396L 2.83513 6.89568L 5.08843 1.83647L 4.86006 1.73476ZM 5.28323 0.676333L 4.85818 1.7392L 5.09031 1.83203L 5.51536 0.769162L 5.28323 0.676333ZM 5.44189 0.597748L 5.39929 0.597748L 5.39929 0.847748L 5.44189 0.847748L 5.44189 0.597748ZM 5.98312 1.73919L 5.55795 0.676322L 5.32584 0.769174L 5.75101 1.83204L 5.98312 1.73919ZM 8.1923 6.79477L 5.98161 1.73556L 5.75252 1.83566L 7.96322 6.89487L 8.1923 6.79477ZM 2.72095 6.96982L 8.07776 6.96982L 8.07776 6.71982L 2.72095 6.71982L 2.72095 6.96982Z"/>
<path id="path8_fill" d="M 4.97417 0.977829L 4.97417 10.4585L 3.91132 10.4585L 3.91132 0.977829L 0 0.977829L 0.0425143 0L 8.928 0L 8.928 0.977829L 4.97417 0.977829Z"/>
<path id="path9_stroke" d="M 4.97417 10.4585L 4.97417 10.5835L 5.09917 10.5835L 5.09917 10.4585L 4.97417 10.4585ZM 3.91132 10.4585L 3.78632 10.4585L 3.78632 10.5835L 3.91132 10.5835L 3.91132 10.4585ZM 3.91132 0.977829L 4.03632 0.977829L 4.03632 0.852829L 3.91132 0.852829L 3.91132 0.977829ZM 0 0.977829L -0.124882 0.972399L -0.130553 1.10283L 0 1.10283L 0 0.977829ZM 0.0425143 0L 0.0425143 -0.125L -0.0771691 -0.125L -0.0823678 -0.00542965L 0.0425143 0ZM 8.928 0L 9.053 0L 9.053 -0.125L 8.928 -0.125L 8.928 0ZM 8.928 0.977829L 8.928 1.10283L 9.053 1.10283L 9.053 0.977829L 8.928 0.977829ZM 4.84917 0.977829L 4.84917 10.4585L 5.09917 10.4585L 5.09917 0.977829L 4.84917 0.977829ZM 4.97417 10.3335L 3.91132 10.3335L 3.91132 10.5835L 4.97417 10.5835L 4.97417 10.3335ZM 4.03632 10.4585L 4.03632 0.977829L 3.78632 0.977829L 3.78632 10.4585L 4.03632 10.4585ZM 3.91132 0.852829L 0 0.852829L 0 1.10283L 3.91132 1.10283L 3.91132 0.852829ZM 0.124882 0.983259L 0.167396 0.00542965L -0.0823678 -0.00542965L -0.124882 0.972399L 0.124882 0.983259ZM 0.0425143 0.125L 8.928 0.125L 8.928 -0.125L 0.0425143 -0.125L 0.0425143 0.125ZM 8.803 0L 8.803 0.977829L 9.053 0.977829L 9.053 0L 8.803 0ZM 8.928 0.852829L 4.97417 0.852829L 4.97417 1.10283L 8.928 1.10283L 8.928 0.852829Z"/>
<path id="path10_fill" d="M 3.52869 10.8837C 2.0832 10.8837 0.935315 10.5435 0 9.99086L 0.170057 9.05555C 1.14789 9.60823 2.25326 9.94835 3.5712 9.94835C 5.52686 9.94835 6.5472 9.05555 6.5472 7.78012C 6.5472 5.01669 0.170057 6.46217 0.170057 2.89097C 0.170057 1.36046 1.31794 0 3.99634 0C 5.22926 0 6.33463 0.212572 7.22743 0.637715L 7.05737 1.53051C 6.07955 1.14789 5.14423 0.935315 4.03886 0.935315C 1.95566 0.935315 1.1904 1.87063 1.1904 2.80594C 1.1904 5.44183 7.56755 3.95383 7.56755 7.69509C 7.52503 9.56572 6.16457 10.8837 3.52869 10.8837Z"/>
<path id="path11_stroke" d="M 0 9.99086L -0.122984 9.9685L -0.138561 10.0542L -0.0635912 10.0985L 0 9.99086ZM 0.170057 9.05555L 0.231564 8.94673L 0.0785213 8.86022L 0.0470735 9.03319L 0.170057 9.05555ZM 7.22743 0.637715L 7.35022 0.661104L 7.36828 0.566334L 7.28117 0.524857L 7.22743 0.637715ZM 7.05737 1.53051L 7.01182 1.64692L 7.152 1.70177L 7.18017 1.5539L 7.05737 1.53051ZM 7.56755 7.69509L 7.69255 7.69793L 7.69255 7.69509L 7.56755 7.69509ZM 3.52869 10.7587C 2.10114 10.76 0.985242 10.429 0.0635912 9.88325L -0.0635912 10.0985C 0.885387 10.6581 2.06526 11.0074 3.52869 11.0087L 3.52869 10.7587ZM 0.122984 10.0132L 0.293041 9.07791L 0.0470735 9.03319L -0.122984 9.9685L 0.122984 10.0132ZM 0.10855 9.16437C 1.09846 9.72305 2.23467 10.072 3.5712 10.0733L 3.5712 9.82335C 2.27185 9.82474 1.19731 9.49342 0.231564 8.94673L 0.10855 9.16437ZM 3.5712 10.0733C 4.56621 10.0733 5.34026 9.84643 5.86858 9.44175C 6.40064 9.03422 6.6722 8.45462 6.6722 7.78012L 6.4222 7.78012C 6.4222 8.38104 6.18359 8.88556 5.71656 9.24328C 5.2458 9.60387 4.53185 9.82335 3.5712 9.82335L 3.5712 10.0733ZM 6.6722 7.78012C 6.6722 7.02499 6.22926 6.56242 5.60815 6.24151C 4.99642 5.92649 4.18656 5.73254 3.39121 5.51778C 2.59205 5.30201 1.81503 5.06596 1.23717 4.6698C 0.668393 4.27987 0.295057 3.73693 0.295057 2.89097L 0.0450573 2.89097C 0.0450573 3.83061 0.468865 4.44619 1.09581 4.87599C 1.71365 5.29956 2.53093 5.54446 3.32605 5.75914C 4.12499 5.97484 4.90942 6.16086 5.4934 6.46362C 6.068 6.7605 6.4222 7.15353 6.4222 7.78012L 6.6722 7.78012ZM 0.295057 2.89097C 0.295057 2.1584 0.568839 1.47184 1.16002 0.966565C 1.7528 0.459911 2.67734 0.125 3.99634 0.125L 3.99634 -0.125C 2.63695 -0.125 1.64834 0.220318 0.997585 0.776522C 0.345219 1.3341 0.0450573 2.09303 0.0450573 2.89097L 0.295057 2.89097ZM 3.99634 0.125C 5.2174 0.124436 6.29564 0.331335 7.17369 0.750572L 7.28117 0.524857C 6.37362 0.0938076 5.24112 -0.124436 3.99634 -0.125L 3.99634 0.125ZM 7.10464 0.614326L 6.93458 1.50713L 7.18017 1.5539L 7.35022 0.661104L 7.10464 0.614326ZM 7.10292 1.41411C 6.11627 1.0284 5.15817 0.811094 4.03886 0.810315L 4.03886 1.06031C 5.13029 1.05954 6.04282 1.26737 7.01182 1.64692L 7.10292 1.41411ZM 4.03886 0.810315C 2.98029 0.810315 2.23764 1.04778 1.75677 1.42115C 1.27293 1.79684 1.0654 2.30178 1.0654 2.80594L 1.3154 2.80594C 1.3154 2.37479 1.4905 1.94442 1.91009 1.61862C 2.33265 1.29051 3.01422 1.06031 4.03886 1.06031L 4.03886 0.810315ZM 1.0654 2.80594C 1.06742 3.15778 1.18133 3.46217 1.36665 3.69725C 1.55339 3.92952 1.82485 4.11889 2.13233 4.26827C 2.74354 4.56344 3.5521 4.74484 4.34677 4.95678C 5.14486 5.16961 5.92121 5.41215 6.49838 5.82514C 7.06667 6.23179 7.44255 6.80393 7.44255 7.69509L 7.69255 7.69509C 7.69255 6.71562 7.27128 6.07079 6.64386 5.62183C 6.02531 5.17923 5.20737 4.92754 4.41118 4.71522C 3.61156 4.50202 2.82583 4.32737 2.24133 4.04328C 1.95095 3.90302 1.7242 3.74697 1.56219 3.54147C 1.39876 3.33879 1.31339 3.11308 1.3154 2.80594L 1.0654 2.80594ZM 7.44258 7.69225C 7.42204 8.59612 7.0844 9.3575 6.44053 9.8949C 5.79449 10.4341 4.82694 10.7587 3.52869 10.7587L 3.52869 11.0087C 4.86632 11.0087 5.89694 10.6742 6.60073 10.0868C 7.3067 9.49759 7.67054 8.66469 7.69251 7.69793L 7.44258 7.69225Z"/>
</defs>
</svg>
